<mxfile host="65bd71144e">
    <diagram id="yKVbiKzd5d9fE4_f2g8m" name="Page-1">
        <mxGraphModel dx="1250" dy="723" grid="1" gridSize="10" guides="1" tooltips="1" connect="1" arrows="1" fold="1" page="1" pageScale="1" pageWidth="1100" pageHeight="850" math="0" shadow="0">
            <root>
                <mxCell id="0"/>
                <mxCell id="1" parent="0"/>
                <mxCell id="2" value="comp_tracker.db" style="ellipse;whiteSpace=wrap;html=1;align=center;fontStyle=4;" parent="1" vertex="1">
                    <mxGeometry x="320" y="10" width="460" height="90" as="geometry"/>
                </mxCell>
                <mxCell id="5" style="edgeStyle=none;html=1;exitX=0.5;exitY=0;exitDx=0;exitDy=0;" parent="1" source="3" target="2" edge="1">
                    <mxGeometry relative="1" as="geometry"/>
                </mxCell>
                <mxCell id="3" value="database/__init__.py&lt;br&gt;db_con - Creates DB Connection/File&lt;br&gt;db_cur - Creates Cursor" style="ellipse;whiteSpace=wrap;html=1;align=center;" parent="1" vertex="1">
                    <mxGeometry x="365" y="140" width="370" height="80" as="geometry"/>
                </mxCell>
                <mxCell id="9" value="Users Class" style="swimlane;childLayout=stackLayout;horizontal=1;startSize=30;horizontalStack=0;rounded=1;fontSize=14;fontStyle=0;strokeWidth=2;resizeParent=0;resizeLast=1;shadow=0;dashed=0;align=center;" parent="1" vertex="1">
                    <mxGeometry x="130" y="280" width="200" height="380" as="geometry"/>
                </mxCell>
                <mxCell id="10" value="&#10;Create&#10;View one&#10;View All&#10;Edit&#10;Delete&#10;" style="align=left;strokeColor=none;fillColor=none;spacingLeft=4;fontSize=12;verticalAlign=top;resizable=0;rotatable=0;part=1;" parent="9" vertex="1">
                    <mxGeometry y="30" width="200" height="350" as="geometry"/>
                </mxCell>
                <mxCell id="11" value="Competencies Class" style="swimlane;childLayout=stackLayout;horizontal=1;startSize=30;horizontalStack=0;rounded=1;fontSize=14;fontStyle=0;strokeWidth=2;resizeParent=0;resizeLast=1;shadow=0;dashed=0;align=center;" parent="1" vertex="1">
                    <mxGeometry x="350" y="280" width="200" height="380" as="geometry"/>
                </mxCell>
                <mxCell id="12" value="&#10;Create&#10;View&#10;Edit&#10;Delete" style="align=left;strokeColor=none;fillColor=none;spacingLeft=4;fontSize=12;verticalAlign=top;resizable=0;rotatable=0;part=1;" parent="11" vertex="1">
                    <mxGeometry y="30" width="200" height="350" as="geometry"/>
                </mxCell>
                <mxCell id="13" value="Assessments Class" style="swimlane;childLayout=stackLayout;horizontal=1;startSize=30;horizontalStack=0;rounded=1;fontSize=14;fontStyle=0;strokeWidth=2;resizeParent=0;resizeLast=1;shadow=0;dashed=0;align=center;" parent="1" vertex="1">
                    <mxGeometry x="570" y="280" width="200" height="380" as="geometry"/>
                </mxCell>
                <mxCell id="14" value="&#10;Create&#10;View&#10;Edit&#10;Delete" style="align=left;strokeColor=none;fillColor=none;spacingLeft=4;fontSize=12;verticalAlign=top;resizable=0;rotatable=0;part=1;" parent="13" vertex="1">
                    <mxGeometry y="30" width="200" height="350" as="geometry"/>
                </mxCell>
                <mxCell id="15" value="Results Class" style="swimlane;childLayout=stackLayout;horizontal=1;startSize=30;horizontalStack=0;rounded=1;fontSize=14;fontStyle=0;strokeWidth=2;resizeParent=0;resizeLast=1;shadow=0;dashed=0;align=center;" parent="1" vertex="1">
                    <mxGeometry x="790" y="280" width="200" height="380" as="geometry"/>
                </mxCell>
                <mxCell id="16" value="&#10;View Results for all&#10;Enter Result&#10;View results for Individual&#10;View results per competency&#10;" style="align=left;strokeColor=none;fillColor=none;spacingLeft=4;fontSize=12;verticalAlign=top;resizable=0;rotatable=0;part=1;" parent="15" vertex="1">
                    <mxGeometry y="30" width="200" height="350" as="geometry"/>
                </mxCell>
            </root>
        </mxGraphModel>
    </diagram>
</mxfile>